Patient4_TMGait_0pt3_01_left_20_EMG.mot
version=1
nRows=19
nColumns=33
inDegrees=no
endheader
time	1LAddLong	2LGlutMax	3LGlutMed	4LIliopsoas	5LSemiMemb	6LBicFemLong	7LRecFem	8LVastMed	9LVastLat	10LGasMed	11LTibAnt	12lTibPost	13LPeroneusLong	14LSol	15LExtDigLong	16LFlexDigLong	17RAddLong	18RGlutMax	19RGlutMed	20RIliopsoas	21RSemiMemb	22RBicFemLong	23RRecFem	24RVastMed	25RVastLat	26RGasMed	27RTibAnt	28RTibPost	29RPeroneusLong	30RSol	31RExtDigLong	32RFlexDigLong
38.067	-0.017242	0.084991	0.057831	-0.001068	-0.012512	-0.012512	0.10193	0.002441	0.016022	0.025024	0.013733	0.003357	0.099792	-0.004883	-0.012054	0.023804	0.026245	-0.061646	0.045319	0.012054	-0.019836	-0.3244	0.16113	-0.070038	0.014496	-0.006104	0.018921	-0.003815	0	-0.015564	-0.002136	-0.014648
38.068	-0.022583	0.098572	-0.002136	0.001678	-0.005341	0.043488	0.036316	0.007477	0.25421	0.054474	0.01236	0.012207	0.070801	-0.003967	0.014038	0.005493	0.018005	-0.053406	0.073853	0.034332	-0.037079	-0.28641	0.13077	-0.066223	0.017853	-0.002289	0.012817	0.000305	0.044708	-0.022278	-0.002899	-0.011597
38.069	-0.014801	0.066223	0.080414	-0.000305	-0.023499	0.10086	-0.057068	0.007935	0.44464	0.061493	-0.005646	0.006409	0.096893	-0.002747	-0.013885	0.008545	-0.006104	-0.038605	0.036163	0.002136	-0.043488	-0.16388	0.1239	-0.071106	0.016174	-0.006256	0.019379	0.000305	0.025177	-0.047455	-0.000458	-0.008698
38.07	-0.019836	0.064087	0.062408	-0.002899	-0.006409	0.090942	-0.13275	0.027161	0.55878	0.077209	-0.001068	0.013733	-0.036621	-0.016327	0.011902	-0.002289	-0.016785	-0.07019	-0.030823	-0.073853	-0.037994	-0.032654	0.16159	-0.059662	0.014648	-0.00824	0.014038	0.000305	0.031433	-0.030518	-0.002136	-0.010681
38.071	-0.029755	0.056	-0.029755	0.009766	-0.0354	0.077515	0.012512	0.061188	0.54855	0.15686	0.011749	0.005646	-0.18417	-0.025024	-0.026703	-0.016937	-0.025024	-0.000916	-0.082397	-0.11169	-0.022888	0.064697	0.17624	-0.042572	0.028076	-0.004425	0.023346	-0.001068	0.031891	-0.038147	-0.006409	-0.016022
38.072	-0.034485	0.004883	0.040436	0.003662	-0.020752	-0.037231	0.1033	0.049591	0.23499	0.15091	0.005341	0.012054	-0.073547	0.05188	-0.010681	0.006561	-0.007782	-0.070953	-0.000916	-0.083923	-0.022125	0.27756	0.11139	-0.03891	0.022278	-0.008698	0.005493	0.001831	0.010681	-0.043335	-0.001831	-0.019226
38.073	-0.037689	-0.024109	0.04776	0.033569	-0.001068	0.036469	0.092926	0.011597	-0.159	0.15366	0.01236	0.001221	-0.03952	0.058899	-0.00824	0.006866	0.002747	-0.067749	0.037079	-0.02243	-0.033417	0.53558	0.11398	-0.073853	0.024414	-0.008545	0.025177	0.001373	-0.005951	-0.038147	-0.001831	-0.014801
38.074	-0.028992	-0.034943	0.091705	0.036621	-0.064392	0.051727	0.084839	-0.02121	-0.32989	0.11627	0.006409	0.000305	0.10284	0.066223	0.001526	0.003967	0.014954	-0.067749	0.089569	0.10498	-0.091705	0.26459	0.11841	-0.083618	0.026855	-0.001373	0.027771	-0.000458	0.009918	-0.031433	-0.006409	-0.01297
38.075	-0.000153	-0.042572	0.035858	0.005341	-0.070648	-0.12085	0.086517	-0.024261	-0.37705	-0.092621	0.013275	0.01297	-0.036774	-0.040436	0.002899	0.014801	0.027924	-0.071106	0.036163	0.12909	-0.099792	0.063477	0.13626	-0.016632	0.049438	-0.004578	0.038452	-0.00351	-0.004578	0.074463	-0.000458	-0.010834
38.076	0.01358	0.011597	0.026855	0.011597	-0.050659	-0.044403	0.12909	-0.018158	-0.22949	-0.1268	0.00351	0.004272	-0.019073	-0.06073	-0.009155	0.010376	-0.002136	-0.065613	0.011902	0.091095	-0.090942	0.017853	0.10239	-0.028839	0.047455	-0.008698	0.028992	-0.000916	-0.014954	0.15259	-0.004272	-0.015564
38.077	0.027008	0.033112	0.013123	-0.006104	-0.02655	0.021667	0.054321	0	-0.058289	-0.080719	0.01236	-0.000763	-0.004578	-0.07843	-0.003357	0.00351	-0.011597	-0.086975	0.039063	0.022125	-0.088501	0.032959	0.14114	-0.087891	0.054016	-0.015259	0.021515	-0.000763	-0.033875	0.066528	-0.003357	-0.000916
38.078	0.027924	-0.010071	-0.02594	-0.019684	0.017853	0.052948	-0.06424	-0.003357	0.007935	-0.057068	0.004272	0.007477	0.018616	-0.046844	0.006409	0.003662	-0.03006	-0.095978	0.014191	-0.002289	-0.070801	-0.015259	0.14191	-0.041351	0.048523	0.003815	-0.007629	0.000458	-0.11475	-0.000153	-0.001221	-0.001678
38.079	0.031128	-0.019226	0.007172	-0.032349	0.071259	0.10468	-0.065613	-0.016022	0.005951	0.000305	0.000305	0.02121	0.045929	-0.021667	0.005493	0.005951	-0.045776	-0.054626	-0.020752	-0.025024	-0.021515	0.026398	0.12833	-0.017242	0.049286	0.001526	-0.000305	-0.005188	-0.11749	0.002747	-0.001831	-0.009613
38.08	0.026398	-0.025635	-0.046692	-0.012512	0.071716	0.12299	-0.044708	-0.011749	-0.02655	0.021057	-0.00061	0.007019	0.022736	-0.032349	0.006409	0.012207	-0.045624	0.009918	-0.014038	-0.00061	0.046234	0.028381	0.13092	-0.025787	0.037537	0.00061	-0.008545	-0.005035	-0.019073	0.009308	0.001221	-0.008392
38.081	0.009308	-0.020447	-0.061188	0.041809	0.056305	0.10727	0.003204	0.013123	-0.15686	0.026245	0.001068	-0.011749	0.017548	-0.093079	-0.014954	0.005188	-0.017853	0.016327	-0.029449	0.018158	0.19531	-0.004883	0.13702	-0.063477	0.039215	0.000458	-0.001068	-0.000458	0.1178	-0.043182	-0.003815	-0.013123
38.082	0.015869	0.004883	-0.073242	0.022888	0.024567	0.077515	0.075073	0.015564	-0.18051	0.032349	-0.000916	-0.007019	0.064697	-0.12283	-0.002136	0.013885	0.017548	-0.033875	0.21332	0.026855	0.19989	0.050812	0.15488	-0.12726	0.026855	0.005341	-0.006714	-0.00061	0.14877	-0.050964	-0.001221	-0.008392
38.083	0.014343	-0.004425	-0.040283	0.012665	-0.000153	0.0354	0.077057	0.000763	-0.17258	0.036469	0.010223	0.005035	0.10086	-0.087585	0.000916	0.005188	0.002594	-0.024109	0.28595	0.060883	0.13886	0.089111	0.15747	-0.079803	0.02655	0.002594	0.009003	-0.000458	0.18219	0.0177	-0.003815	-0.005951
38.084	0.014648	-0.032196	-0.032806	0.015411	0.001678	0.015411	0.028992	0.002136	-0.13992	-0.016937	0.007935	0.003204	0.51544	0.049438	0.03006	0.009766	-0.0177	0.004272	0.090637	0.001831	0.11139	0.07019	0.14999	-0.017548	0.028992	-0.000763	0.008392	-0.002899	0.20508	0.093536	-0.001221	-0.006714
38.085	0.005798	-0.027618	-0.037537	0.011292	-0.024567	-0.06424	0.025024	0.005798	-0.075073	-0.061951	-0.007324	0.002289	1.0957	0.14297	0.056915	0.00473	-0.001221	0.009308	-0.14496	-0.10407	0.081787	0.016632	0.1387	0.026093	0.040894	-0.012665	0.010529	-0.003052	0.1471	0.20462	-0.003357	-0.00824
